<?xml version="1.0" standalone="no"?>
<!DOCTYPE svg PUBLIC "-//W3C//DTD SVG 20010904//EN"
 "http://www.w3.org/TR/2001/REC-SVG-20010904/DTD/svg10.dtd">
<svg version="1.0" xmlns="http://www.w3.org/2000/svg"
 width="500.000000pt" height="500.000000pt" viewBox="0 0 500.000000 500.000000"
 preserveAspectRatio="xMidYMid meet">
<metadata>
Created by potrace 1.14, written by Peter Selinger 2001-2017
</metadata>
<g transform="translate(0.000000,500.000000) scale(0.100000,-0.100000)"
fill="#000000" stroke="none">
<path d="M2280 4489 c-336 -34 -699 -180 -988 -396 -100 -75 -268 -237 -345
-333 -285 -354 -447 -810 -447 -1260 0 -450 162 -906 447 -1260 77 -96 245
-258 345 -333 665 -499 1559 -542 2256 -109 181 112 379 286 505 442 489 606
584 1441 243 2135 -111 225 -230 390 -408 560 -433 417 -1006 614 -1608 554z
m550 -38 c405 -71 743 -241 1032 -520 328 -316 516 -672 594 -1126 25 -143 25
-462 0 -609 -53 -321 -179 -621 -367 -876 -80 -109 -300 -329 -409 -409 -250
-185 -537 -308 -846 -362 -185 -33 -483 -33 -668 0 -308 54 -596 177 -846 361
-110 81 -329 301 -413 415 -189 256 -322 582 -369 901 -19 129 -16 454 6 579
54 318 170 600 352 857 81 115 336 368 451 448 298 208 614 325 988 364 95 10
384 -3 495 -23z"/>
<path d="M2463 4299 c-68 -20 -95 -102 -50 -154 17 -19 40 -29 96 -39 94 -18
118 -48 65 -82 -36 -24 -94 -9 -112 29 -11 22 -20 27 -48 27 -40 0 -44 -18
-15 -66 25 -41 75 -57 158 -52 57 4 69 8 89 32 17 19 24 39 24 70 0 60 -30 86
-116 100 -44 7 -71 17 -78 29 -17 26 4 51 47 55 29 3 42 -2 61 -22 30 -33 86
-37 86 -6 0 62 -115 106 -207 79z"/>
<path d="M2114 4259 l-42 -10 -22 -169 c-13 -94 -21 -172 -18 -175 3 -3 19 -2
36 1 26 5 32 12 37 44 l6 37 72 13 71 13 21 -27 c20 -25 47 -32 78 -20 21 8
-156 305 -181 303 -9 -1 -36 -5 -58 -10z m70 -121 c20 -33 33 -64 29 -68 -4
-5 -27 -11 -51 -15 l-44 -7 7 48 c8 64 16 104 20 104 1 0 19 -28 39 -62z"/>
<path d="M2977 4178 c-18 -24 -66 -86 -106 -138 l-73 -95 32 -13 c31 -12 35
-11 61 14 l29 28 70 -23 c69 -22 70 -23 70 -57 0 -28 5 -36 26 -44 14 -6 30
-10 35 -10 10 0 12 253 3 312 -6 33 -11 39 -52 52 -25 9 -49 16 -53 16 -4 0
-23 -19 -42 -42z m69 -175 c-2 -2 -23 1 -45 8 -48 14 -48 18 6 87 l38 48 3
-69 c2 -38 1 -71 -2 -74z"/>
<path d="M1823 4173 c-18 -9 -33 -22 -33 -29 0 -7 -5 -36 -11 -63 l-11 -51
-60 31 c-61 31 -61 31 -99 13 -22 -9 -39 -20 -39 -23 0 -4 40 -27 90 -51 78
-38 89 -47 84 -65 -16 -65 -40 -185 -37 -185 2 0 21 9 42 20 36 18 39 24 51
84 l12 65 64 -32 64 -31 42 21 43 20 -92 47 c-104 52 -103 49 -78 151 16 68
18 95 8 94 -5 0 -23 -8 -40 -16z"/>
<path d="M3315 4045 c-17 -16 -25 -35 -25 -58 0 -31 -3 -35 -33 -41 -75 -14
-106 -98 -56 -152 29 -32 94 -63 131 -64 20 0 28 -7 37 -31 9 -26 14 -29 33
-24 31 10 30 7 17 44 -11 30 -9 35 14 59 23 22 28 24 43 12 14 -12 18 -12 31
5 12 18 12 22 -8 38 -26 21 -72 22 -89 2 -19 -22 -26 -19 -37 20 l-11 35 44 0
c81 0 119 66 72 125 -44 56 -123 71 -163 30z m106 -44 c33 -27 16 -55 -35 -59
-34 -3 -36 -2 -36 27 0 18 7 34 18 40 24 14 26 14 53 -8z m-106 -142 c27 -78
27 -79 8 -79 -10 0 -33 9 -50 20 -40 24 -44 61 -11 84 30 21 39 17 53 -25z"/>
<path d="M1400 3933 c-47 -36 -93 -71 -103 -78 -17 -12 -11 -23 79 -139 53
-70 100 -129 105 -132 9 -5 209 144 209 156 0 4 -9 15 -19 24 -19 17 -22 16
-92 -38 l-72 -56 -23 32 c-13 17 -24 33 -24 34 0 1 29 24 65 50 36 26 65 50
65 53 0 3 -7 15 -15 25 -14 19 -16 18 -52 -8 -21 -15 -52 -38 -69 -52 l-32
-25 -22 31 c-25 35 -33 25 67 97 57 41 62 52 36 76 -17 14 -24 11 -103 -50z"/>
<path d="M3555 3765 l-120 -114 27 -28 28 -28 72 71 c136 131 136 131 59 -6
l-70 -125 33 -33 33 -34 124 62 124 61 -92 -91 c-51 -50 -93 -95 -93 -99 0 -4
10 -17 23 -29 l24 -22 122 117 123 116 -46 46 -46 46 -115 -58 c-63 -31 -117
-57 -120 -57 -2 0 11 26 29 58 18 31 47 82 64 112 l31 56 -40 47 c-22 26 -44
47 -47 47 -4 -1 -61 -52 -127 -115z"/>
<path d="M1987 3793 c-42 -33 -137 -148 -137 -168 0 -7 -36 -39 -81 -70 -172
-121 -314 -283 -411 -471 l-53 -102 -33 5 c-31 6 -39 0 -118 -80 -76 -77 -84
-89 -84 -124 0 -35 7 -46 75 -113 l75 -74 0 -118 c0 -536 362 -1029 881 -1198
246 -81 552 -81 796 -1 98 32 232 96 301 143 l43 29 45 -22 c77 -37 155 -17
208 54 27 36 33 124 12 165 -16 31 -16 31 37 105 68 94 138 230 172 332 88
262 88 574 0 831 -106 308 -337 575 -627 724 -190 98 -365 140 -588 140 -114
0 -295 -20 -319 -34 -5 -4 -30 12 -56 34 -56 48 -87 51 -138 13z m154 -908
l87 -80 -71 -73 c-40 -40 -73 -68 -75 -64 -3 10 -484 459 -514 480 -17 12 -14
18 48 87 l66 74 186 -172 c102 -95 224 -208 273 -252z"/>
<path d="M1117 3673 l-95 -108 21 -23 21 -23 37 43 36 43 79 -70 c44 -38 89
-78 102 -89 l22 -19 25 23 c14 13 24 27 23 31 -2 4 -30 31 -63 60 -33 28 -77
67 -98 86 l-38 34 36 43 c34 41 34 44 17 59 -10 10 -21 17 -24 17 -4 0 -49
-48 -101 -107z"/>
<path d="M3876 1644 c-14 -20 -23 -41 -21 -44 3 -4 31 -23 64 -43 l60 -36 21
33 c11 19 20 40 20 47 0 8 -10 -1 -21 -18 -24 -37 -23 -37 -50 -22 -19 10 -19
12 -4 35 9 14 14 31 12 37 -2 7 -11 -3 -21 -21 -14 -28 -20 -31 -36 -22 -24
13 -25 28 -4 58 9 13 14 26 11 28 -3 3 -17 -11 -31 -32z"/>
<path d="M1056 1644 c-4 -9 -4 -32 0 -50 5 -27 2 -35 -11 -41 -24 -9 -48 23
-35 47 10 18 3 33 -11 24 -16 -9 -9 -60 9 -77 41 -38 78 -10 67 52 -7 43 6 61
31 40 10 -8 13 -21 9 -36 -3 -13 -1 -23 4 -23 16 0 23 38 11 60 -13 25 -65 28
-74 4z"/>
<path d="M3741 1455 c-34 -39 -43 -69 -12 -41 17 16 21 14 67 -23 64 -54 73
-41 10 15 -42 37 -47 45 -36 59 27 33 1 24 -29 -10z"/>
<path d="M1178 1434 c-32 -26 -55 -52 -51 -56 3 -5 16 1 29 13 l24 23 16 -23
c23 -33 78 -26 82 10 2 17 -6 37 -20 54 l-24 27 -56 -48z m92 -25 c0 -4 -8
-13 -19 -18 -14 -8 -23 -6 -36 9 -17 19 -17 21 1 41 l19 21 17 -22 c10 -12 18
-26 18 -31z"/>
<path d="M1345 1254 l-48 -55 29 -30 c15 -16 32 -29 38 -29 5 0 -2 12 -16 28
-21 21 -25 31 -17 45 13 23 32 22 54 -3 10 -11 21 -18 23 -15 3 3 -5 16 -18
30 -22 24 -23 27 -7 42 15 15 18 15 34 1 26 -22 43 -30 43 -21 0 4 -15 20 -34
35 l-34 27 -47 -55z"/>
<path d="M3567 1273 c-6 -9 44 -137 57 -150 5 -4 6 5 3 21 -6 36 26 68 61 59
38 -9 24 5 -41 42 -68 37 -73 39 -80 28z m64 -42 c23 -18 23 -18 2 -29 -17
-10 -22 -8 -32 14 -6 14 -11 27 -11 29 0 11 19 4 41 -14z"/>
<path d="M1536 1101 c-20 -32 -36 -61 -36 -64 0 -9 71 -50 76 -44 3 3 -8 13
-25 23 -35 21 -36 23 -17 49 12 17 14 17 37 2 36 -26 48 -20 15 7 -24 20 -27
26 -16 45 l11 22 35 -21 c19 -12 34 -18 34 -13 0 7 -64 53 -74 53 -3 0 -21
-26 -40 -59z"/>
<path d="M3368 1124 c-16 -8 -28 -20 -28 -27 0 -16 68 -117 79 -117 5 0 20 9
35 21 32 25 36 68 6 76 -13 3 -20 14 -20 28 0 13 -7 26 -16 29 -21 8 -25 8
-56 -10z m55 -18 c3 -8 -3 -22 -14 -32 -18 -16 -21 -16 -36 -1 -13 13 -14 19
-3 31 16 20 46 21 53 2z m38 -52 c11 -14 10 -19 -10 -35 -30 -24 -36 -24 -49
5 -9 20 -7 25 11 34 30 15 33 14 48 -4z"/>
<path d="M1784 1019 c-54 -19 -70 -90 -30 -128 26 -24 76 -26 84 -4 2 9 -5 11
-27 7 -39 -8 -61 9 -61 47 0 31 30 69 55 69 17 0 50 -30 57 -51 3 -8 8 -11 12
-8 4 3 2 18 -3 31 -11 30 -57 49 -87 37z"/>
<path d="M3163 1015 c-18 -8 -33 -19 -33 -24 0 -9 15 -43 56 -129 1 -2 71 27
83 35 2 2 2 6 -1 9 -4 3 -20 -2 -37 -10 -29 -15 -31 -15 -42 6 -10 18 -8 24 7
35 10 7 21 13 26 13 4 0 8 4 8 9 0 5 -14 4 -30 -2 -25 -10 -33 -9 -40 3 -15
23 -12 28 20 45 51 26 37 34 -17 10z"/>
<path d="M2015 928 c-23 -73 -33 -124 -25 -132 5 -5 11 6 15 28 8 40 9 41 53
25 28 -10 30 -13 25 -47 -8 -56 11 -28 31 44 19 70 19 74 7 74 -5 0 -12 -14
-16 -31 -7 -29 -9 -31 -43 -24 -21 4 -38 8 -39 9 -2 1 1 17 6 34 6 20 6 32 0
32 -5 0 -11 -6 -14 -12z"/>
<path d="M2897 923 c-19 -5 -18 -20 8 -108 10 -34 15 -40 36 -37 67 7 99 74
59 125 -21 27 -53 33 -103 20z m83 -23 c22 -22 27 -72 8 -88 -7 -5 -23 -13
-35 -16 -19 -6 -23 -1 -37 48 -9 30 -16 56 -16 59 0 5 11 8 53 16 4 0 16 -8
27 -19z"/>
<path d="M2462 857 c-6 -7 -9 -22 -6 -33 3 -12 -1 -26 -10 -33 -20 -17 -20
-35 0 -55 18 -18 65 -21 81 -5 8 8 13 8 17 0 4 -6 14 -11 23 -11 15 0 15 2 0
18 -12 13 -13 22 -5 35 13 24 1 35 -15 13 -11 -15 -15 -14 -47 19 -26 26 -31
38 -22 47 8 8 15 8 27 -2 17 -14 31 -8 20 9 -9 15 -50 14 -63 -2z m58 -108 c0
-13 -32 -19 -51 -9 -22 12 -25 30 -7 48 9 9 17 7 35 -10 13 -12 23 -25 23 -29z"/>
</g>
</svg>
